<?xml version="1.0" encoding="UTF-8" standalone="no"?>
<svg
   xmlns:dc="http://purl.org/dc/elements/1.1/"
   xmlns:cc="http://creativecommons.org/ns#"
   xmlns:rdf="http://www.w3.org/1999/02/22-rdf-syntax-ns#"
   xmlns:svg="http://www.w3.org/2000/svg"
   xmlns="http://www.w3.org/2000/svg"
   xmlns:sodipodi="http://sodipodi.sourceforge.net/DTD/sodipodi-0.dtd"
   xmlns:inkscape="http://www.inkscape.org/namespaces/inkscape"
   style="font-size:12px;font-style:normal;font-weight:normal;fill:#000000;fill-opacity:1;stroke:#000000;stroke-width:1;stroke-linecap:square;stroke-linejoin:miter;stroke-miterlimit:10;stroke-opacity:1;stroke-dasharray:none;stroke-dashoffset:0;font-family:Dialog"
   width="290.91101"
   height="290.91101"
   id="svg2"
   version="1.1"
   inkscape:version="0.48.2 r9819"
   sodipodi:docname="scidoe_logo.svg">
  <metadata
     id="metadata168">
    <rdf:RDF>
      <cc:Work
         rdf:about="">
        <dc:format>image/svg+xml</dc:format>
        <dc:type
           rdf:resource="http://purl.org/dc/dcmitype/StillImage" />
      </cc:Work>
    </rdf:RDF>
  </metadata>
  <sodipodi:namedview
     pagecolor="#ffffff"
     bordercolor="#666666"
     borderopacity="1"
     objecttolerance="10"
     gridtolerance="10"
     guidetolerance="10"
     inkscape:pageopacity="0"
     inkscape:pageshadow="2"
     inkscape:window-width="1280"
     inkscape:window-height="962"
     id="namedview166"
     showgrid="false"
     fit-margin-top="0"
     fit-margin-left="0"
     fit-margin-right="0"
     fit-margin-bottom="0"
     inkscape:zoom="0.25652174"
     inkscape:cx="295.46032"
     inkscape:cy="239.16468"
     inkscape:window-x="-8"
     inkscape:window-y="-8"
     inkscape:window-maximized="1"
     inkscape:current-layer="layer2" />
  <!--Generated by Scilab with Batik SVG Generator-->
  <defs
     id="genericDefs">
    <defs
       id="defs1">
      <clipPath
         id="clipPath1"
         clipPathUnits="userSpaceOnUse">
        <path
           id="path9"
           d="m -6.5,-6.5 0,13 13,0 z"
           inkscape:connector-curvature="0" />
      </clipPath>
      <clipPath
         id="clipPath2"
         clipPathUnits="userSpaceOnUse">
        <path
           id="path12"
           d="m -6.5,-6.5 13,13 0,0 z"
           inkscape:connector-curvature="0" />
      </clipPath>
    </defs>
    <clipPath
       id="clipPath1-1"
       clipPathUnits="userSpaceOnUse">
      <path
         inkscape:connector-curvature="0"
         id="path9-7"
         d="m -6.5,-6.5 0,13 13,0 z" />
    </clipPath>
    <clipPath
       id="clipPath1-5"
       clipPathUnits="userSpaceOnUse">
      <path
         inkscape:connector-curvature="0"
         id="path9-1"
         d="m -6.5,-6.5 0,13 13,0 z" />
    </clipPath>
  </defs>
  <g
     inkscape:groupmode="layer"
     id="layer1"
     inkscape:label="Fond"
     style="display:inline"
     transform="translate(23.877117,1.4364269)">
    <rect
       style="font-size:12px;font-style:normal;font-weight:normal;fill:none;stroke:none;display:inline;font-family:Dialog;stroke-width:4;stroke-miterlimit:10;stroke-dasharray:none"
       id="rect3415"
       width="290.91101"
       height="290.91101"
       x="-23.877117"
       y="-1.4364269" />
  </g>
  <g
     inkscape:groupmode="layer"
     id="layer2"
     inkscape:label="Reste"
     style="display:inline"
     transform="translate(23.877117,1.4364269)">
    <g
       style="font-size:12px;font-style:normal;font-weight:normal;fill:#000000;fill-opacity:1;stroke:#000000;stroke-width:4;stroke-linecap:square;stroke-linejoin:miter;stroke-miterlimit:10;stroke-opacity:1;stroke-dasharray:none;stroke-dashoffset:0;display:inline;font-family:Dialog"
       id="g80"
       transform="translate(-183.41566,-85.980922)">
      <path
         inkscape:connector-curvature="0"
         id="path82"
         d="M 363.6863,325.677 305,373.75"
         style="fill:none;stroke-width:4;stroke-miterlimit:10;stroke-dasharray:none" />
      <path
         inkscape:connector-curvature="0"
         id="path84"
         d="m 305,86.25 -58.6863,48.073"
         style="fill:none;stroke-width:4;stroke-miterlimit:10;stroke-dasharray:none" />
      <circle
         sodipodi:ry="5"
         sodipodi:rx="5"
         sodipodi:cy="0"
         sodipodi:cx="0"
         clip-path="url(#clipPath1)"
         id="circle86"
         cy="0"
         cx="0"
         r="5"
         style="stroke:none"
         transform="translate(246.3137,134.323)"
         d="M 5,0 C 5,2.7614237 2.7614237,5 0,5 -2.7614237,5 -5,2.7614237 -5,0 c 0,-2.7614237 2.2385763,-5 5,-5 2.7614237,0 5,2.2385763 5,5 z" />
    </g>
    <g
       style="font-size:12px;font-style:normal;font-weight:normal;fill:#000000;fill-opacity:1;stroke:#000000;stroke-width:4;stroke-linecap:square;stroke-linejoin:miter;stroke-miterlimit:10;stroke-opacity:1;stroke-dasharray:none;stroke-dashoffset:0;display:inline;font-family:Dialog"
       id="g106"
       transform="translate(-183.41566,-85.980922)">
      <path
         inkscape:connector-curvature="0"
         id="path108"
         d="m 187.6274,277.604 58.6863,48.073"
         style="fill:none;stroke-width:4;stroke-miterlimit:10;stroke-dasharray:none" />
      <path
         inkscape:connector-curvature="0"
         id="path110"
         d="M 246.3137,325.677 305,373.75"
         style="fill:none;stroke-width:4;stroke-miterlimit:10;stroke-dasharray:none" />
      <circle
         sodipodi:ry="5"
         sodipodi:rx="5"
         sodipodi:cy="0"
         sodipodi:cx="0"
         clip-path="url(#clipPath1)"
         id="circle112"
         cy="0"
         cx="0"
         r="5"
         style="stroke:none"
         transform="translate(246.3137,325.677)"
         d="M 5,0 C 5,2.7614237 2.7614237,5 0,5 -2.7614237,5 -5,2.7614237 -5,0 c 0,-2.7614237 2.2385763,-5 5,-5 2.7614237,0 5,2.2385763 5,5 z" />
    </g>
    <g
       style="font-size:12px;font-style:normal;font-weight:normal;fill:#000000;fill-opacity:1;stroke:#000000;stroke-width:4;stroke-linecap:square;stroke-linejoin:miter;stroke-miterlimit:10;stroke-opacity:1;stroke-dasharray:none;stroke-dashoffset:0;display:inline;font-family:Dialog"
       id="g126"
       transform="translate(-183.41566,-85.980922)">
      <path
         inkscape:connector-curvature="0"
         id="path128"
         d="m 305,373.75 0,-47.604"
         style="fill:none;stroke-width:4;stroke-miterlimit:10;stroke-dasharray:none" />
      <path
         inkscape:connector-curvature="0"
         id="path130"
         d="m 305,326.146 0,-47.6039"
         style="fill:none;stroke-width:4;stroke-miterlimit:10;stroke-dasharray:none" />
      <circle
         sodipodi:ry="5"
         sodipodi:rx="5"
         sodipodi:cy="0"
         sodipodi:cx="0"
         clip-path="url(#clipPath1)"
         id="circle132"
         cy="0"
         cx="0"
         r="5"
         style="stroke:none"
         transform="translate(305,326.146)"
         d="M 5,0 C 5,2.7614237 2.7614237,5 0,5 -2.7614237,5 -5,2.7614237 -5,0 c 0,-2.7614237 2.2385763,-5 5,-5 2.7614237,0 5,2.2385763 5,5 z" />
    </g>
    <g
       style="font-size:12px;font-style:normal;font-weight:normal;fill:#000000;fill-opacity:1;stroke:#000000;stroke-width:4;stroke-linecap:square;stroke-linejoin:miter;stroke-miterlimit:10;stroke-opacity:1;stroke-dasharray:none;stroke-dashoffset:0;display:inline;font-family:Dialog"
       id="g42"
       transform="translate(121.58434,144.01908)">
      <circle
         sodipodi:ry="5"
         sodipodi:rx="5"
         sodipodi:cy="0"
         sodipodi:cx="0"
         d="M 5,0 C 5,2.7614237 2.7614237,5 0,5 -2.7614237,5 -5,2.7614237 -5,0 c 0,-2.7614237 2.2385763,-5 5,-5 2.7614237,0 5,2.2385763 5,5 z"
         id="circle44"
         cy="0"
         cx="0"
         style="stroke:none"
         r="5" />
    </g>
    <g
       style="font-size:12px;font-style:normal;font-weight:normal;fill:#000000;fill-opacity:1;stroke:#000000;stroke-width:4;stroke-linecap:square;stroke-linejoin:miter;stroke-miterlimit:10;stroke-opacity:1;stroke-dasharray:none;stroke-dashoffset:0;display:inline;font-family:Dialog"
       id="g46"
       transform="translate(121.58434,144.01908)">
      <circle
         sodipodi:ry="5"
         sodipodi:rx="5"
         sodipodi:cy="0"
         sodipodi:cx="0"
         d="M 5,0 C 5,2.7614237 2.7614237,5 0,5 -2.7614237,5 -5,2.7614237 -5,0 c 0,-2.7614237 2.2385763,-5 5,-5 2.7614237,0 5,2.2385763 5,5 z"
         id="circle48"
         cy="0"
         cx="0"
         style="stroke:none"
         r="5" />
    </g>
    <g
       style="font-size:12px;font-style:normal;font-weight:normal;fill:#000000;fill-opacity:1;stroke:#000000;stroke-width:4;stroke-linecap:square;stroke-linejoin:miter;stroke-miterlimit:10;stroke-opacity:1;stroke-dasharray:none;stroke-dashoffset:0;display:inline;font-family:Dialog"
       id="g50"
       transform="matrix(2.1207628,0,0,2.1207628,121.3407,144.26272)">
      <circle
         sodipodi:ry="5"
         sodipodi:rx="5"
         sodipodi:cy="0"
         sodipodi:cx="0"
         d="M 5,0 C 5,2.7614237 2.7614237,5 0,5 -2.7614237,5 -5,2.7614237 -5,0 c 0,-2.7614237 2.2385763,-5 5,-5 2.7614237,0 5,2.2385763 5,5 z"
         id="circle52"
         cy="0"
         cx="0"
         style="stroke:none"
         r="5" />
    </g>
    <g
       style="font-size:12px;font-style:normal;font-weight:normal;fill:#000000;fill-opacity:1;stroke:#000000;stroke-width:4;stroke-linecap:square;stroke-linejoin:miter;stroke-miterlimit:10;stroke-opacity:1;stroke-dasharray:none;stroke-dashoffset:0;display:inline;font-family:Dialog"
       id="g62"
       transform="translate(180.27064,143.55008)">
      <circle
         sodipodi:ry="5"
         sodipodi:rx="5"
         sodipodi:cy="0"
         sodipodi:cx="0"
         d="M 5,0 C 5,2.7614237 2.7614237,5 0,5 -2.7614237,5 -5,2.7614237 -5,0 c 0,-2.7614237 2.2385763,-5 5,-5 2.7614237,0 5,2.2385763 5,5 z"
         clip-path="url(#clipPath2)"
         id="circle64"
         cy="0"
         cx="0"
         style="stroke:none"
         r="5" />
    </g>
    <g
       style="font-size:12px;font-style:normal;font-weight:normal;fill:#000000;fill-opacity:1;stroke:#000000;stroke-width:4;stroke-linecap:square;stroke-linejoin:miter;stroke-miterlimit:10;stroke-opacity:1;stroke-dasharray:none;stroke-dashoffset:0;display:inline;font-family:Dialog"
       id="g72"
       transform="translate(-183.41566,-85.980922)">
      <path
         inkscape:connector-curvature="0"
         id="path74"
         d="M 363.6863,230.4691 305,278.5421"
         style="fill:none;stroke-width:4;stroke-miterlimit:10;stroke-dasharray:none" />
      <path
         inkscape:connector-curvature="0"
         id="path76"
         d="m 422.3726,277.604 -58.6863,48.073"
         style="fill:none;stroke-width:4;stroke-miterlimit:10;stroke-dasharray:none" />
      <circle
         sodipodi:ry="5"
         sodipodi:rx="5"
         sodipodi:cy="0"
         sodipodi:cx="0"
         clip-path="url(#clipPath1)"
         id="circle78"
         cy="0"
         cx="0"
         r="5"
         style="stroke:none"
         transform="translate(363.6863,325.677)"
         d="M 5,0 C 5,2.7614237 2.7614237,5 0,5 -2.7614237,5 -5,2.7614237 -5,0 c 0,-2.7614237 2.2385763,-5 5,-5 2.7614237,0 5,2.2385763 5,5 z" />
    </g>
    <path
       style="font-size:12px;font-style:normal;font-weight:normal;fill:none;stroke:#000000;stroke-width:4;stroke-linecap:square;stroke-linejoin:miter;stroke-miterlimit:10;stroke-opacity:1;stroke-dasharray:none;stroke-dashoffset:0;display:inline;font-family:Dialog"
       d="m 4.2117382,191.62308 0,-47.604"
       id="path136"
       inkscape:connector-curvature="0" />
    <circle
       d="M 5,0 C 5,2.7614237 2.7614237,5 0,5 -2.7614237,5 -5,2.7614237 -5,0 c 0,-2.7614237 2.2385763,-5 5,-5 2.7614237,0 5,2.2385763 5,5 z"
       transform="translate(4.2117382,144.01908)"
       style="font-size:12px;font-style:normal;font-weight:normal;fill:#000000;fill-opacity:1;stroke:none;display:inline;font-family:Dialog"
       r="5"
       cx="0"
       cy="0"
       id="circle140"
       clip-path="url(#clipPath1)"
       sodipodi:cx="0"
       sodipodi:cy="0"
       sodipodi:rx="5"
       sodipodi:ry="5" />
    <circle
       d="M 5,0 C 5,2.7614237 2.7614237,5 0,5 -2.7614237,5 -5,2.7614237 -5,0 c 0,-2.7614237 2.2385763,-5 5,-5 2.7614237,0 5,2.2385763 5,5 z"
       transform="matrix(-1,0,0,-1,4.1998382,144.02211)"
       style="font-size:12px;font-style:normal;font-weight:normal;fill:#000000;fill-opacity:1;stroke:none;display:inline;font-family:Dialog"
       r="5"
       cx="0"
       cy="0"
       id="circle140-7"
       clip-path="url(#clipPath1-5)"
       sodipodi:cx="0"
       sodipodi:cy="0"
       sodipodi:rx="5"
       sodipodi:ry="5" />
    <g
       style="font-size:12px;font-style:normal;font-weight:normal;fill:#000000;fill-opacity:1;stroke:#000000;stroke-width:4;stroke-linecap:square;stroke-linejoin:miter;stroke-miterlimit:10;stroke-opacity:1;stroke-dasharray:none;stroke-dashoffset:0;display:inline;font-family:Dialog"
       id="g50-14"
       transform="translate(238.69769,144.1409)">
      <circle
         sodipodi:ry="5"
         sodipodi:rx="5"
         sodipodi:cy="0"
         sodipodi:cx="0"
         d="M 5,0 C 5,2.7614237 2.7614237,5 0,5 -2.7614237,5 -5,2.7614237 -5,0 c 0,-2.7614237 2.2385763,-5 5,-5 2.7614237,0 5,2.2385763 5,5 z"
         id="circle52-23"
         cy="0"
         cx="0"
         style="stroke:none"
         r="5" />
    </g>
    <g
       style="font-size:12px;font-style:normal;font-weight:normal;fill:#000000;fill-opacity:1;stroke:#000000;stroke-width:4;stroke-linecap:square;stroke-linejoin:miter;stroke-miterlimit:10;stroke-opacity:1;stroke-dasharray:none;stroke-dashoffset:0;display:inline;font-family:Dialog"
       id="g50-2"
       transform="translate(179.85764,144.50637)">
      <circle
         sodipodi:ry="5"
         sodipodi:rx="5"
         sodipodi:cy="0"
         sodipodi:cx="0"
         d="M 5,0 C 5,2.7614237 2.7614237,5 0,5 -2.7614237,5 -5,2.7614237 -5,0 c 0,-2.7614237 2.2385763,-5 5,-5 2.7614237,0 5,2.2385763 5,5 z"
         id="circle52-21"
         cy="0"
         cx="0"
         style="stroke:none"
         r="5" />
    </g>
    <g
       style="font-size:12px;font-style:normal;font-weight:normal;fill:#000000;fill-opacity:1;stroke:#000000;stroke-width:4;stroke-linecap:square;stroke-linejoin:miter;stroke-miterlimit:10;stroke-opacity:1;stroke-dasharray:none;stroke-dashoffset:0;display:inline;font-family:Dialog"
       id="g50-6"
       transform="translate(62.689708,239.72497)">
      <circle
         sodipodi:ry="5"
         sodipodi:rx="5"
         sodipodi:cy="0"
         sodipodi:cx="0"
         d="M 5,0 C 5,2.7614237 2.7614237,5 0,5 -2.7614237,5 -5,2.7614237 -5,0 c 0,-2.7614237 2.2385763,-5 5,-5 2.7614237,0 5,2.2385763 5,5 z"
         id="circle52-8"
         cy="0"
         cx="0"
         style="stroke:none"
         r="5" />
    </g>
    <g
       style="font-size:12px;font-style:normal;font-weight:normal;fill:#000000;fill-opacity:1;stroke:#000000;stroke-width:4;stroke-linecap:square;stroke-linejoin:miter;stroke-miterlimit:10;stroke-opacity:1;stroke-dasharray:none;stroke-dashoffset:0;display:inline;font-family:Dialog"
       id="g50-57"
       transform="translate(121.38307,240.38031)">
      <circle
         sodipodi:ry="5"
         sodipodi:rx="5"
         sodipodi:cy="0"
         sodipodi:cx="0"
         d="M 5,0 C 5,2.7614237 2.7614237,5 0,5 -2.7614237,5 -5,2.7614237 -5,0 c 0,-2.7614237 2.2385763,-5 5,-5 2.7614237,0 5,2.2385763 5,5 z"
         id="circle52-61"
         cy="0"
         cx="0"
         style="stroke:none"
         r="5" />
    </g>
    <g
       style="font-size:12px;font-style:normal;font-weight:normal;fill:#000000;fill-opacity:1;stroke:#000000;stroke-width:4;stroke-linecap:square;stroke-linejoin:miter;stroke-miterlimit:10;stroke-opacity:1;stroke-dasharray:none;stroke-dashoffset:0;display:inline;font-family:Dialog"
       id="g50-8"
       transform="translate(179.85765,240.07576)">
      <circle
         sodipodi:ry="5"
         sodipodi:rx="5"
         sodipodi:cy="0"
         sodipodi:cx="0"
         d="M 5,0 C 5,2.7614237 2.7614237,5 0,5 -2.7614237,5 -5,2.7614237 -5,0 c 0,-2.7614237 2.2385763,-5 5,-5 2.7614237,0 5,2.2385763 5,5 z"
         id="circle52-9"
         cy="0"
         cx="0"
         style="stroke:none"
         r="5" />
    </g>
    <g
       style="font-size:12px;font-style:normal;font-weight:normal;fill:#000000;fill-opacity:1;stroke:#000000;stroke-width:4;stroke-linecap:square;stroke-linejoin:miter;stroke-miterlimit:10;stroke-opacity:1;stroke-dasharray:none;stroke-dashoffset:0;display:inline;font-family:Dialog"
       id="g54"
       transform="translate(-183.41566,-85.980922)">
      <path
         inkscape:connector-curvature="0"
         id="path56"
         d="m 363.6863,229.5309 58.6863,48.0731"
         style="fill:none;stroke-width:4;stroke-miterlimit:10;stroke-dasharray:none" />
      <path
         inkscape:connector-curvature="0"
         id="path58"
         d="m 305,181.4579 58.6863,48.073"
         style="fill:none;stroke-width:4;stroke-miterlimit:10;stroke-dasharray:none" />
      <circle
         sodipodi:ry="5"
         sodipodi:rx="5"
         sodipodi:cy="0"
         sodipodi:cx="0"
         clip-path="url(#clipPath1)"
         id="circle60"
         cy="0"
         cx="0"
         r="5"
         style="stroke:none"
         transform="translate(363.6863,229.531)"
         d="M 5,0 C 5,2.7614237 2.7614237,5 0,5 -2.7614237,5 -5,2.7614237 -5,0 c 0,-2.7614237 2.2385763,-5 5,-5 2.7614237,0 5,2.2385763 5,5 z" />
    </g>
    <g
       style="font-size:12px;font-style:normal;font-weight:normal;fill:#000000;fill-opacity:1;stroke:#000000;stroke-width:4;stroke-linecap:square;stroke-linejoin:miter;stroke-miterlimit:10;stroke-opacity:1;stroke-dasharray:none;stroke-dashoffset:0;display:inline;font-family:Dialog"
       id="g66"
       transform="translate(-183.41566,-85.980922)">
      <path
         inkscape:connector-curvature="0"
         id="path68"
         d="m 422.3726,182.396 -58.6863,48.0731"
         style="fill:none;stroke-width:4;stroke-miterlimit:10;stroke-dasharray:none" />
      <circle
         sodipodi:ry="5"
         sodipodi:rx="5"
         sodipodi:cy="0"
         sodipodi:cx="0"
         clip-path="url(#clipPath1)"
         id="circle70"
         cy="0"
         cx="0"
         r="5"
         style="stroke:none"
         transform="translate(363.6863,230.469)"
         d="M 5,0 C 5,2.7614237 2.7614237,5 0,5 -2.7614237,5 -5,2.7614237 -5,0 c 0,-2.7614237 2.2385763,-5 5,-5 2.7614237,0 5,2.2385763 5,5 z" />
    </g>
    <g
       style="font-size:12px;font-style:normal;font-weight:normal;fill:#000000;fill-opacity:1;stroke:#000000;stroke-width:4;stroke-linecap:square;stroke-linejoin:miter;stroke-miterlimit:10;stroke-opacity:1;stroke-dasharray:none;stroke-dashoffset:0;display:inline;font-family:Dialog"
       id="g88"
       transform="translate(-183.41566,-85.980922)">
      <path
         inkscape:connector-curvature="0"
         id="path90"
         d="m 246.3137,134.323 -58.6863,48.073"
         style="fill:none;stroke-width:4;stroke-miterlimit:10;stroke-dasharray:none" />
      <path
         inkscape:connector-curvature="0"
         id="path92"
         d="m 305,181.4579 -58.6863,48.073"
         style="fill:none;stroke-width:4;stroke-miterlimit:10;stroke-dasharray:none" />
      <circle
         sodipodi:ry="5"
         sodipodi:rx="5"
         sodipodi:cy="0"
         sodipodi:cx="0"
         clip-path="url(#clipPath1)"
         id="circle94"
         cy="0"
         cx="0"
         r="5"
         style="stroke:none"
         transform="translate(246.3137,229.531)"
         d="M 5,0 C 5,2.7614237 2.7614237,5 0,5 -2.7614237,5 -5,2.7614237 -5,0 c 0,-2.7614237 2.2385763,-5 5,-5 2.7614237,0 5,2.2385763 5,5 z" />
    </g>
    <g
       style="font-size:12px;font-style:normal;font-weight:normal;fill:#000000;fill-opacity:1;stroke:#000000;stroke-width:4;stroke-linecap:square;stroke-linejoin:miter;stroke-miterlimit:10;stroke-opacity:1;stroke-dasharray:none;stroke-dashoffset:0;display:inline;font-family:Dialog"
       id="g96"
       transform="translate(-183.41566,-85.980922)">
      <path
         inkscape:connector-curvature="0"
         id="path98"
         d="M 246.3137,229.5309 187.6274,277.604"
         style="fill:none;stroke-width:4;stroke-miterlimit:10;stroke-dasharray:none" />
      <path
         inkscape:connector-curvature="0"
         id="path100"
         d="m 187.6274,182.396 58.6863,48.0731"
         style="fill:none;stroke-width:4;stroke-miterlimit:10;stroke-dasharray:none" />
      <path
         inkscape:connector-curvature="0"
         id="path102"
         d="M 246.3137,230.4691 305,278.5421"
         style="fill:none;stroke-width:4;stroke-miterlimit:10;stroke-dasharray:none" />
      <circle
         sodipodi:ry="5"
         sodipodi:rx="5"
         sodipodi:cy="0"
         sodipodi:cx="0"
         clip-path="url(#clipPath1)"
         id="circle104"
         cy="0"
         cx="0"
         r="5"
         style="stroke:none"
         transform="translate(246.3137,230.469)"
         d="M 5,0 C 5,2.7614237 2.7614237,5 0,5 -2.7614237,5 -5,2.7614237 -5,0 c 0,-2.7614237 2.2385763,-5 5,-5 2.7614237,0 5,2.2385763 5,5 z" />
      <circle
         sodipodi:ry="5"
         sodipodi:rx="5"
         sodipodi:cy="0"
         sodipodi:cx="0"
         clip-path="url(#clipPath1-1)"
         id="circle104-4"
         cy="0"
         cx="0"
         r="5"
         style="font-size:12px;font-style:normal;font-weight:normal;fill:#000000;fill-opacity:1;stroke:none;font-family:Dialog"
         transform="matrix(-1,0,0,-1,246.19151,229.65846)"
         d="M 5,0 C 5,2.7614237 2.7614237,5 0,5 -2.7614237,5 -5,2.7614237 -5,0 c 0,-2.7614237 2.2385763,-5 5,-5 2.7614237,0 5,2.2385763 5,5 z" />
    </g>
    <g
       style="font-size:12px;font-style:normal;font-weight:normal;fill:#000000;fill-opacity:1;stroke:#000000;stroke-width:4;stroke-linecap:square;stroke-linejoin:miter;stroke-miterlimit:10;stroke-opacity:1;stroke-dasharray:none;stroke-dashoffset:0;display:inline;font-family:Dialog"
       id="g114"
       transform="translate(-183.41566,-85.980922)">
      <path
         inkscape:connector-curvature="0"
         id="path116"
         d="m 305,86.25 58.6863,48.073"
         style="fill:none;stroke-width:4;stroke-miterlimit:10;stroke-dasharray:none" />
      <path
         inkscape:connector-curvature="0"
         id="path118"
         d="m 363.6863,134.323 58.6863,48.073"
         style="fill:none;stroke-width:4;stroke-miterlimit:10;stroke-dasharray:none" />
      <circle
         sodipodi:ry="5"
         sodipodi:rx="5"
         sodipodi:cy="0"
         sodipodi:cx="0"
         clip-path="url(#clipPath1)"
         id="circle120"
         cy="0"
         cx="0"
         r="5"
         style="stroke:none"
         transform="translate(363.6863,134.323)"
         d="M 5,0 C 5,2.7614237 2.7614237,5 0,5 -2.7614237,5 -5,2.7614237 -5,0 c 0,-2.7614237 2.2385763,-5 5,-5 2.7614237,0 5,2.2385763 5,5 z" />
    </g>
    <g
       style="font-size:12px;font-style:normal;font-weight:normal;fill:#000000;fill-opacity:1;stroke:#000000;stroke-width:4;stroke-linecap:square;stroke-linejoin:miter;stroke-miterlimit:10;stroke-opacity:1;stroke-dasharray:none;stroke-dashoffset:0;display:inline;font-family:Dialog"
       id="g122"
       transform="translate(180.27064,48.342078)">
      <circle
         sodipodi:ry="5"
         sodipodi:rx="5"
         sodipodi:cy="0"
         sodipodi:cx="0"
         d="M 5,0 C 5,2.7614237 2.7614237,5 0,5 -2.7614237,5 -5,2.7614237 -5,0 c 0,-2.7614237 2.2385763,-5 5,-5 2.7614237,0 5,2.2385763 5,5 z"
         clip-path="url(#clipPath2)"
         id="circle124"
         cy="0"
         cx="0"
         style="stroke:none"
         r="5" />
    </g>
    <path
       style="font-size:12px;font-style:normal;font-weight:normal;fill:none;stroke:#000000;stroke-width:4;stroke-linecap:square;stroke-linejoin:miter;stroke-miterlimit:10;stroke-opacity:1;stroke-dasharray:none;stroke-dashoffset:0;display:inline;font-family:Dialog"
       d="m 4.2117382,144.01908 0,-47.604002"
       id="path138"
       inkscape:connector-curvature="0" />
    <g
       style="font-size:12px;font-style:normal;font-weight:normal;fill:#000000;fill-opacity:1;stroke:#000000;stroke-width:4;stroke-linecap:square;stroke-linejoin:miter;stroke-miterlimit:10;stroke-opacity:1;stroke-dasharray:none;stroke-dashoffset:0;display:inline;font-family:Dialog"
       id="g146"
       transform="translate(-183.41566,-85.980922)">
      <path
         inkscape:connector-curvature="0"
         id="path148"
         d="m 422.3726,277.604 0,-47.604"
         style="fill:none;stroke-width:4;stroke-miterlimit:10;stroke-dasharray:none" />
      <path
         inkscape:connector-curvature="0"
         id="path150"
         d="m 422.3726,230 0,-47.604"
         style="fill:none;stroke-width:4;stroke-miterlimit:10;stroke-dasharray:none" />
      <circle
         sodipodi:ry="5"
         sodipodi:rx="5"
         sodipodi:cy="0"
         sodipodi:cx="0"
         clip-path="url(#clipPath1)"
         id="circle152"
         cy="0"
         cx="0"
         r="5"
         style="stroke:none"
         transform="translate(422.3726,230)"
         d="M 5,0 C 5,2.7614237 2.7614237,5 0,5 -2.7614237,5 -5,2.7614237 -5,0 c 0,-2.7614237 2.2385763,-5 5,-5 2.7614237,0 5,2.2385763 5,5 z" />
    </g>
    <g
       style="font-size:12px;font-style:normal;font-weight:normal;fill:#000000;fill-opacity:1;stroke:#000000;stroke-width:4;stroke-linecap:square;stroke-linejoin:miter;stroke-miterlimit:10;stroke-opacity:1;stroke-dasharray:none;stroke-dashoffset:0;display:inline;font-family:Dialog"
       id="g154"
       transform="translate(-183.41566,-85.980922)">
      <path
         inkscape:connector-curvature="0"
         id="path156"
         d="m 305,181.4579 0,-47.6039"
         style="fill:none;stroke-width:4;stroke-miterlimit:10;stroke-dasharray:none" />
      <path
         inkscape:connector-curvature="0"
         id="path158"
         d="M 305,133.854 305,86.25"
         style="fill:none;stroke-width:4;stroke-miterlimit:10;stroke-dasharray:none" />
      <circle
         sodipodi:ry="5"
         sodipodi:rx="5"
         sodipodi:cy="0"
         sodipodi:cx="0"
         clip-path="url(#clipPath1)"
         id="circle160"
         cy="0"
         cx="0"
         r="5"
         style="stroke:none"
         transform="translate(305,133.854)"
         d="M 5,0 C 5,2.7614237 2.7614237,5 0,5 -2.7614237,5 -5,2.7614237 -5,0 c 0,-2.7614237 2.2385763,-5 5,-5 2.7614237,0 5,2.2385763 5,5 z" />
    </g>
    <g
       style="font-size:12px;font-style:normal;font-weight:normal;fill:#000000;fill-opacity:1;stroke:#000000;stroke-width:4;stroke-linecap:square;stroke-linejoin:miter;stroke-miterlimit:10;stroke-opacity:1;stroke-dasharray:none;stroke-dashoffset:0;display:inline;font-family:Dialog"
       id="g162"
       transform="translate(121.58434,47.873078)">
      <circle
         sodipodi:ry="5"
         sodipodi:rx="5"
         sodipodi:cy="0"
         sodipodi:cx="0"
         d="M 5,0 C 5,2.7614237 2.7614237,5 0,5 -2.7614237,5 -5,2.7614237 -5,0 c 0,-2.7614237 2.2385763,-5 5,-5 2.7614237,0 5,2.2385763 5,5 z"
         clip-path="url(#clipPath2)"
         id="circle164"
         cy="0"
         cx="0"
         style="stroke:none"
         r="5" />
    </g>
    <g
       style="font-size:12px;font-style:normal;font-weight:normal;fill:#000000;fill-opacity:1;stroke:#000000;stroke-width:4;stroke-linecap:square;stroke-linejoin:miter;stroke-miterlimit:10;stroke-opacity:1;stroke-dasharray:none;stroke-dashoffset:0;display:inline;font-family:Dialog"
       id="g50-1"
       transform="translate(62.908488,48.266958)">
      <circle
         sodipodi:ry="5"
         sodipodi:rx="5"
         sodipodi:cy="0"
         sodipodi:cx="0"
         d="M 5,0 C 5,2.7614237 2.7614237,5 0,5 -2.7614237,5 -5,2.7614237 -5,0 c 0,-2.7614237 2.2385763,-5 5,-5 2.7614237,0 5,2.2385763 5,5 z"
         id="circle52-1"
         cy="0"
         cx="0"
         style="stroke:none"
         r="5" />
    </g>
    <g
       style="font-size:12px;font-style:normal;font-weight:normal;fill:#000000;fill-opacity:1;stroke:#000000;stroke-width:4;stroke-linecap:square;stroke-linejoin:miter;stroke-miterlimit:10;stroke-opacity:1;stroke-dasharray:none;stroke-dashoffset:0;display:inline;font-family:Dialog"
       id="g50-5"
       transform="translate(121.50489,48.023318)">
      <circle
         sodipodi:ry="5"
         sodipodi:rx="5"
         sodipodi:cy="0"
         sodipodi:cx="0"
         d="M 5,0 C 5,2.7614237 2.7614237,5 0,5 -2.7614237,5 -5,2.7614237 -5,0 c 0,-2.7614237 2.2385763,-5 5,-5 2.7614237,0 5,2.2385763 5,5 z"
         id="circle52-2"
         cy="0"
         cx="0"
         style="stroke:none"
         r="5" />
    </g>
    <g
       style="font-size:12px;font-style:normal;font-weight:normal;fill:#000000;fill-opacity:1;stroke:#000000;stroke-width:4;stroke-linecap:square;stroke-linejoin:miter;stroke-miterlimit:10;stroke-opacity:1;stroke-dasharray:none;stroke-dashoffset:0;display:inline;font-family:Dialog"
       id="g50-7"
       transform="translate(180.22311,48.388778)"
       inkscape:transform-center-y="-0.7309322">
      <circle
         sodipodi:ry="5"
         sodipodi:rx="5"
         sodipodi:cy="0"
         sodipodi:cx="0"
         d="M 5,0 C 5,2.7614237 2.7614237,5 0,5 -2.7614237,5 -5,2.7614237 -5,0 c 0,-2.7614237 2.2385763,-5 5,-5 2.7614237,0 5,2.2385763 5,5 z"
         id="circle52-6"
         cy="0"
         cx="0"
         style="stroke:none"
         r="5" />
    </g>
    <g
       style="font-size:12px;font-style:normal;font-weight:normal;fill:#000000;fill-opacity:1;stroke:#000000;stroke-width:4;stroke-linecap:square;stroke-linejoin:miter;stroke-miterlimit:10;stroke-opacity:1;stroke-dasharray:none;stroke-dashoffset:0;display:inline;font-family:Dialog"
       id="g50-17"
       transform="matrix(2.1207628,0,0,2.1207628,61.885595,143.77543)">
      <circle
         sodipodi:ry="5"
         sodipodi:rx="5"
         sodipodi:cy="0"
         sodipodi:cx="0"
         d="M 5,0 C 5,2.7614237 2.7614237,5 0,5 -2.7614237,5 -5,2.7614237 -5,0 c 0,-2.7614237 2.2385763,-5 5,-5 2.7614237,0 5,2.2385763 5,5 z"
         id="circle52-4"
         cy="0"
         cx="0"
         style="stroke:none"
         r="5" />
    </g>
    <g
       style="font-size:12px;font-style:normal;font-weight:normal;fill:#000000;fill-opacity:1;stroke:#000000;stroke-width:4;stroke-linecap:square;stroke-linejoin:miter;stroke-miterlimit:10;stroke-opacity:1;stroke-dasharray:none;stroke-dashoffset:0;display:inline;font-family:Dialog"
       id="g50-0"
       transform="matrix(2.1207628,0,0,2.1207628,3.8983069,143.77543)">
      <circle
         sodipodi:ry="5"
         sodipodi:rx="5"
         sodipodi:cy="0"
         sodipodi:cx="0"
         d="M 5,0 C 5,2.7614237 2.7614237,5 0,5 -2.7614237,5 -5,2.7614237 -5,0 c 0,-2.7614237 2.2385763,-5 5,-5 2.7614237,0 5,2.2385763 5,5 z"
         id="circle52-94"
         cy="0"
         cx="0"
         style="stroke:none"
         r="5" />
    </g>
    <g
       style="font-size:12px;font-style:normal;font-weight:normal;fill:#000000;fill-opacity:1;stroke:#000000;stroke-width:4;stroke-linecap:square;stroke-linejoin:miter;stroke-miterlimit:10;stroke-opacity:1;stroke-dasharray:none;stroke-dashoffset:0;display:inline;font-family:Dialog"
       id="g50-88"
       transform="matrix(2.1207628,0,0,2.1207628,62.860172,48.266955)">
      <circle
         sodipodi:ry="5"
         sodipodi:rx="5"
         sodipodi:cy="0"
         sodipodi:cx="0"
         d="M 5,0 C 5,2.7614237 2.7614237,5 0,5 -2.7614237,5 -5,2.7614237 -5,0 c 0,-2.7614237 2.2385763,-5 5,-5 2.7614237,0 5,2.2385763 5,5 z"
         id="circle52-24"
         cy="0"
         cx="0"
         style="stroke:none"
         r="5" />
    </g>
    <g
       style="font-size:12px;font-style:normal;font-weight:normal;fill:#000000;fill-opacity:1;stroke:#000000;stroke-width:4;stroke-linecap:square;stroke-linejoin:miter;stroke-miterlimit:10;stroke-opacity:1;stroke-dasharray:none;stroke-dashoffset:0;display:inline;font-family:Dialog"
       id="g50-55"
       transform="matrix(2.1207628,0,0,2.1207628,121.82204,48.266955)">
      <circle
         sodipodi:ry="5"
         sodipodi:rx="5"
         sodipodi:cy="0"
         sodipodi:cx="0"
         d="M 5,0 C 5,2.7614237 2.7614237,5 0,5 -2.7614237,5 -5,2.7614237 -5,0 c 0,-2.7614237 2.2385763,-5 5,-5 2.7614237,0 5,2.2385763 5,5 z"
         id="circle52-17"
         cy="0"
         cx="0"
         style="stroke:none"
         r="5" />
    </g>
    <g
       style="font-size:12px;font-style:normal;font-weight:normal;fill:#000000;fill-opacity:1;stroke:#000000;stroke-width:4;stroke-linecap:square;stroke-linejoin:miter;stroke-miterlimit:10;stroke-opacity:1;stroke-dasharray:none;stroke-dashoffset:0;display:inline;font-family:Dialog"
       id="g50-11"
       transform="matrix(2.1207628,0,0,2.1207628,180.29661,48.266955)">
      <circle
         sodipodi:ry="5"
         sodipodi:rx="5"
         sodipodi:cy="0"
         sodipodi:cx="0"
         d="M 5,0 C 5,2.7614237 2.7614237,5 0,5 -2.7614237,5 -5,2.7614237 -5,0 c 0,-2.7614237 2.2385763,-5 5,-5 2.7614237,0 5,2.2385763 5,5 z"
         id="circle52-5"
         cy="0"
         cx="0"
         style="stroke:none"
         r="5" />
    </g>
    <g
       style="font-size:12px;font-style:normal;font-weight:normal;fill:#000000;fill-opacity:1;stroke:#000000;stroke-width:4;stroke-linecap:square;stroke-linejoin:miter;stroke-miterlimit:10;stroke-opacity:1;stroke-dasharray:none;stroke-dashoffset:0;display:inline;font-family:Dialog"
       id="g50-27"
       transform="matrix(2.1207628,0,0,2.1207628,239.25848,142.31357)">
      <circle
         sodipodi:ry="5"
         sodipodi:rx="5"
         sodipodi:cy="0"
         sodipodi:cx="0"
         d="M 5,0 C 5,2.7614237 2.7614237,5 0,5 -2.7614237,5 -5,2.7614237 -5,0 c 0,-2.7614237 2.2385763,-5 5,-5 2.7614237,0 5,2.2385763 5,5 z"
         id="circle52-614"
         cy="0"
         cx="0"
         style="stroke:none"
         r="5" />
    </g>
    <g
       style="font-size:12px;font-style:normal;font-weight:normal;fill:#000000;fill-opacity:1;stroke:#000000;stroke-width:4;stroke-linecap:square;stroke-linejoin:miter;stroke-miterlimit:10;stroke-opacity:1;stroke-dasharray:none;stroke-dashoffset:0;display:inline;font-family:Dialog"
       id="g50-23"
       transform="matrix(2.1207628,0,0,2.1207628,180.7839,144.26272)">
      <circle
         sodipodi:ry="5"
         sodipodi:rx="5"
         sodipodi:cy="0"
         sodipodi:cx="0"
         d="M 5,0 C 5,2.7614237 2.7614237,5 0,5 -2.7614237,5 -5,2.7614237 -5,0 c 0,-2.7614237 2.2385763,-5 5,-5 2.7614237,0 5,2.2385763 5,5 z"
         id="circle52-22"
         cy="0"
         cx="0"
         style="stroke:none"
         r="5" />
    </g>
    <g
       style="font-size:12px;font-style:normal;font-weight:normal;fill:#000000;fill-opacity:1;stroke:#000000;stroke-width:4;stroke-linecap:square;stroke-linejoin:miter;stroke-miterlimit:10;stroke-opacity:1;stroke-dasharray:none;stroke-dashoffset:0;display:inline;font-family:Dialog"
       id="g50-16"
       transform="matrix(2.1207628,0,0,2.1207628,179.80932,239.28391)">
      <circle
         sodipodi:ry="5"
         sodipodi:rx="5"
         sodipodi:cy="0"
         sodipodi:cx="0"
         d="M 5,0 C 5,2.7614237 2.7614237,5 0,5 -2.7614237,5 -5,2.7614237 -5,0 c 0,-2.7614237 2.2385763,-5 5,-5 2.7614237,0 5,2.2385763 5,5 z"
         id="circle52-85"
         cy="0"
         cx="0"
         style="stroke:none"
         r="5" />
    </g>
    <g
       style="font-size:12px;font-style:normal;font-weight:normal;fill:#000000;fill-opacity:1;stroke:#000000;stroke-width:4;stroke-linecap:square;stroke-linejoin:miter;stroke-miterlimit:10;stroke-opacity:1;stroke-dasharray:none;stroke-dashoffset:0;display:inline;font-family:Dialog"
       id="g50-76"
       transform="matrix(2.1207628,0,0,2.1207628,121.82204,240.25848)">
      <circle
         sodipodi:ry="5"
         sodipodi:rx="5"
         sodipodi:cy="0"
         sodipodi:cx="0"
         d="M 5,0 C 5,2.7614237 2.7614237,5 0,5 -2.7614237,5 -5,2.7614237 -5,0 c 0,-2.7614237 2.2385763,-5 5,-5 2.7614237,0 5,2.2385763 5,5 z"
         id="circle52-18"
         cy="0"
         cx="0"
         style="stroke:none"
         r="5" />
    </g>
    <g
       style="font-size:12px;font-style:normal;font-weight:normal;fill:#000000;fill-opacity:1;stroke:#000000;stroke-width:4;stroke-linecap:square;stroke-linejoin:miter;stroke-miterlimit:10;stroke-opacity:1;stroke-dasharray:none;stroke-dashoffset:0;display:inline;font-family:Dialog"
       id="g50-9"
       transform="matrix(2.1207628,0,0,2.1207628,61.885595,238.79662)">
      <circle
         sodipodi:ry="5"
         sodipodi:rx="5"
         sodipodi:cy="0"
         sodipodi:cx="0"
         d="M 5,0 C 5,2.7614237 2.7614237,5 0,5 -2.7614237,5 -5,2.7614237 -5,0 c 0,-2.7614237 2.2385763,-5 5,-5 2.7614237,0 5,2.2385763 5,5 z"
         id="circle52-27"
         cy="0"
         cx="0"
         style="stroke:none"
         r="5" />
    </g>
  </g>
</svg>
