<?xml version="1.0" encoding="UTF-8" standalone="no"?>
<svg
   xmlns:dc="http://purl.org/dc/elements/1.1/"
   xmlns:cc="http://creativecommons.org/ns#"
   xmlns:rdf="http://www.w3.org/1999/02/22-rdf-syntax-ns#"
   xmlns:svg="http://www.w3.org/2000/svg"
   xmlns="http://www.w3.org/2000/svg"
   xmlns:sodipodi="http://sodipodi.sourceforge.net/DTD/sodipodi-0.dtd"
   xmlns:inkscape="http://www.inkscape.org/namespaces/inkscape"
   style="font-size:12px;font-style:normal;font-weight:normal;fill:#000000;fill-opacity:1;stroke:#000000;stroke-width:1;stroke-linecap:square;stroke-linejoin:miter;stroke-miterlimit:10;stroke-opacity:1;stroke-dasharray:none;stroke-dashoffset:0;font-family:Dialog"
   width="290.91101"
   height="290.91101"
   id="svg2"
   version="1.1"
   inkscape:version="0.48.2 r9819"
   sodipodi:docname="scidoe_logo.svg">
  <metadata
     id="metadata168">
    <rdf:RDF>
      <cc:Work
         rdf:about="">
        <dc:format>image/svg+xml</dc:format>
        <dc:type
           rdf:resource="http://purl.org/dc/dcmitype/StillImage" />
      </cc:Work>
    </rdf:RDF>
  </metadata>
  <sodipodi:namedview
     pagecolor="#ffffff"
     bordercolor="#666666"
     borderopacity="1"
     objecttolerance="10"
     gridtolerance="10"
     guidetolerance="10"
     inkscape:pageopacity="0"
     inkscape:pageshadow="2"
     inkscape:window-width="1280"
     inkscape:window-height="962"
     id="namedview166"
     showgrid="false"
     fit-margin-top="0"
     fit-margin-left="0"
     fit-margin-right="0"
     fit-margin-bottom="0"
     inkscape:zoom="2.0521739"
     inkscape:cx="122.6467"
     inkscape:cy="124.47468"
     inkscape:window-x="-8"
     inkscape:window-y="-8"
     inkscape:window-maximized="1"
     inkscape:current-layer="layer1" />
  <!--Generated by Scilab with Batik SVG Generator-->
  <defs
     id="genericDefs">
    <defs
       id="defs1">
      <clipPath
         id="clipPath1"
         clipPathUnits="userSpaceOnUse">
        <path
           id="path9"
           d="m -6.5,-6.5 0,13 13,0 z"
           inkscape:connector-curvature="0" />
      </clipPath>
      <clipPath
         id="clipPath2"
         clipPathUnits="userSpaceOnUse">
        <path
           id="path12"
           d="m -6.5,-6.5 13,13 0,0 z"
           inkscape:connector-curvature="0" />
      </clipPath>
    </defs>
    <clipPath
       id="clipPath1-1"
       clipPathUnits="userSpaceOnUse">
      <path
         inkscape:connector-curvature="0"
         id="path9-7"
         d="m -6.5,-6.5 0,13 13,0 z" />
    </clipPath>
    <clipPath
       id="clipPath1-5"
       clipPathUnits="userSpaceOnUse">
      <path
         inkscape:connector-curvature="0"
         id="path9-1"
         d="m -6.5,-6.5 0,13 13,0 z" />
    </clipPath>
  </defs>
  <g
     inkscape:groupmode="layer"
     id="layer1"
     inkscape:label="Fond"
     style="display:inline"
     transform="translate(23.877117,1.4364269)">
    <rect
       style="font-size:12px;font-style:normal;font-weight:normal;fill:none;stroke:none;display:inline;font-family:Dialog"
       id="rect3415"
       width="290.91101"
       height="290.91101"
       x="-23.877117"
       y="-1.4364269" />
  </g>
  <g
     inkscape:groupmode="layer"
     id="layer2"
     inkscape:label="Reste"
     style="display:inline"
     transform="translate(23.877117,1.4364269)">
    <g
       id="g3881"
       transform="translate(-0.80016179,-0.23092151)">
      <g
         transform="translate(-182.6155,-85.75)"
         id="g80"
         style="font-size:12px;font-style:normal;font-weight:normal;fill:#000000;fill-opacity:1;stroke:#000000;stroke-width:1;stroke-linecap:square;stroke-linejoin:miter;stroke-miterlimit:10;stroke-opacity:1;stroke-dasharray:none;stroke-dashoffset:0;display:inline;font-family:Dialog">
        <path
           style="fill:none"
           d="M 363.6863,325.677 305,373.75"
           id="path82"
           inkscape:connector-curvature="0" />
        <path
           style="fill:none"
           d="m 305,86.25 -58.6863,48.073"
           id="path84"
           inkscape:connector-curvature="0" />
        <circle
           d="M 5,0 C 5,2.7614237 2.7614237,5 0,5 -2.7614237,5 -5,2.7614237 -5,0 c 0,-2.7614237 2.2385763,-5 5,-5 2.7614237,0 5,2.2385763 5,5 z"
           transform="translate(246.3137,134.323)"
           style="stroke:none"
           r="5"
           cx="0"
           cy="0"
           id="circle86"
           clip-path="url(#clipPath1)"
           sodipodi:cx="0"
           sodipodi:cy="0"
           sodipodi:rx="5"
           sodipodi:ry="5" />
      </g>
      <g
         transform="translate(-182.6155,-85.75)"
         id="g106"
         style="font-size:12px;font-style:normal;font-weight:normal;fill:#000000;fill-opacity:1;stroke:#000000;stroke-width:1;stroke-linecap:square;stroke-linejoin:miter;stroke-miterlimit:10;stroke-opacity:1;stroke-dasharray:none;stroke-dashoffset:0;display:inline;font-family:Dialog">
        <path
           style="fill:none"
           d="m 187.6274,277.604 58.6863,48.073"
           id="path108"
           inkscape:connector-curvature="0" />
        <path
           style="fill:none"
           d="M 246.3137,325.677 305,373.75"
           id="path110"
           inkscape:connector-curvature="0" />
        <circle
           d="M 5,0 C 5,2.7614237 2.7614237,5 0,5 -2.7614237,5 -5,2.7614237 -5,0 c 0,-2.7614237 2.2385763,-5 5,-5 2.7614237,0 5,2.2385763 5,5 z"
           transform="translate(246.3137,325.677)"
           style="stroke:none"
           r="5"
           cx="0"
           cy="0"
           id="circle112"
           clip-path="url(#clipPath1)"
           sodipodi:cx="0"
           sodipodi:cy="0"
           sodipodi:rx="5"
           sodipodi:ry="5" />
      </g>
      <g
         transform="translate(-182.6155,-85.75)"
         id="g126"
         style="font-size:12px;font-style:normal;font-weight:normal;fill:#000000;fill-opacity:1;stroke:#000000;stroke-width:1;stroke-linecap:square;stroke-linejoin:miter;stroke-miterlimit:10;stroke-opacity:1;stroke-dasharray:none;stroke-dashoffset:0;display:inline;font-family:Dialog">
        <path
           style="fill:none"
           d="m 305,373.75 0,-47.604"
           id="path128"
           inkscape:connector-curvature="0" />
        <path
           style="fill:none"
           d="m 305,326.146 0,-47.6039"
           id="path130"
           inkscape:connector-curvature="0" />
        <circle
           d="M 5,0 C 5,2.7614237 2.7614237,5 0,5 -2.7614237,5 -5,2.7614237 -5,0 c 0,-2.7614237 2.2385763,-5 5,-5 2.7614237,0 5,2.2385763 5,5 z"
           transform="translate(305,326.146)"
           style="stroke:none"
           r="5"
           cx="0"
           cy="0"
           id="circle132"
           clip-path="url(#clipPath1)"
           sodipodi:cx="0"
           sodipodi:cy="0"
           sodipodi:rx="5"
           sodipodi:ry="5" />
      </g>
      <g
         transform="translate(122.3845,144.25)"
         id="g42"
         style="font-size:12px;font-style:normal;font-weight:normal;fill:#000000;fill-opacity:1;stroke:#000000;stroke-width:1;stroke-linecap:square;stroke-linejoin:miter;stroke-miterlimit:10;stroke-opacity:1;stroke-dasharray:none;stroke-dashoffset:0;display:inline;font-family:Dialog">
        <circle
           r="5"
           style="stroke:none"
           cx="0"
           cy="0"
           id="circle44"
           d="M 5,0 C 5,2.7614237 2.7614237,5 0,5 -2.7614237,5 -5,2.7614237 -5,0 c 0,-2.7614237 2.2385763,-5 5,-5 2.7614237,0 5,2.2385763 5,5 z"
           sodipodi:cx="0"
           sodipodi:cy="0"
           sodipodi:rx="5"
           sodipodi:ry="5" />
      </g>
      <g
         transform="translate(122.3845,144.25)"
         id="g46"
         style="font-size:12px;font-style:normal;font-weight:normal;fill:#000000;fill-opacity:1;stroke:#000000;stroke-width:1;stroke-linecap:square;stroke-linejoin:miter;stroke-miterlimit:10;stroke-opacity:1;stroke-dasharray:none;stroke-dashoffset:0;display:inline;font-family:Dialog">
        <circle
           r="5"
           style="stroke:none"
           cx="0"
           cy="0"
           id="circle48"
           d="M 5,0 C 5,2.7614237 2.7614237,5 0,5 -2.7614237,5 -5,2.7614237 -5,0 c 0,-2.7614237 2.2385763,-5 5,-5 2.7614237,0 5,2.2385763 5,5 z"
           sodipodi:cx="0"
           sodipodi:cy="0"
           sodipodi:rx="5"
           sodipodi:ry="5" />
      </g>
      <g
         transform="translate(122.3845,144.25)"
         id="g50"
         style="font-size:12px;font-style:normal;font-weight:normal;fill:#000000;fill-opacity:1;stroke:#000000;stroke-width:1;stroke-linecap:square;stroke-linejoin:miter;stroke-miterlimit:10;stroke-opacity:1;stroke-dasharray:none;stroke-dashoffset:0;display:inline;font-family:Dialog">
        <circle
           r="5"
           style="stroke:none"
           cx="0"
           cy="0"
           id="circle52"
           d="M 5,0 C 5,2.7614237 2.7614237,5 0,5 -2.7614237,5 -5,2.7614237 -5,0 c 0,-2.7614237 2.2385763,-5 5,-5 2.7614237,0 5,2.2385763 5,5 z"
           sodipodi:cx="0"
           sodipodi:cy="0"
           sodipodi:rx="5"
           sodipodi:ry="5" />
      </g>
      <g
         transform="translate(181.0708,143.781)"
         id="g62"
         style="font-size:12px;font-style:normal;font-weight:normal;fill:#000000;fill-opacity:1;stroke:#000000;stroke-width:1;stroke-linecap:square;stroke-linejoin:miter;stroke-miterlimit:10;stroke-opacity:1;stroke-dasharray:none;stroke-dashoffset:0;display:inline;font-family:Dialog">
        <circle
           r="5"
           style="stroke:none"
           cx="0"
           cy="0"
           id="circle64"
           clip-path="url(#clipPath2)"
           d="M 5,0 C 5,2.7614237 2.7614237,5 0,5 -2.7614237,5 -5,2.7614237 -5,0 c 0,-2.7614237 2.2385763,-5 5,-5 2.7614237,0 5,2.2385763 5,5 z"
           sodipodi:cx="0"
           sodipodi:cy="0"
           sodipodi:rx="5"
           sodipodi:ry="5" />
      </g>
      <g
         transform="translate(-182.6155,-85.75)"
         id="g72"
         style="font-size:12px;font-style:normal;font-weight:normal;fill:#000000;fill-opacity:1;stroke:#000000;stroke-width:1;stroke-linecap:square;stroke-linejoin:miter;stroke-miterlimit:10;stroke-opacity:1;stroke-dasharray:none;stroke-dashoffset:0;display:inline;font-family:Dialog">
        <path
           style="fill:none"
           d="M 363.6863,230.4691 305,278.5421"
           id="path74"
           inkscape:connector-curvature="0" />
        <path
           style="fill:none"
           d="m 422.3726,277.604 -58.6863,48.073"
           id="path76"
           inkscape:connector-curvature="0" />
        <circle
           d="M 5,0 C 5,2.7614237 2.7614237,5 0,5 -2.7614237,5 -5,2.7614237 -5,0 c 0,-2.7614237 2.2385763,-5 5,-5 2.7614237,0 5,2.2385763 5,5 z"
           transform="translate(363.6863,325.677)"
           style="stroke:none"
           r="5"
           cx="0"
           cy="0"
           id="circle78"
           clip-path="url(#clipPath1)"
           sodipodi:cx="0"
           sodipodi:cy="0"
           sodipodi:rx="5"
           sodipodi:ry="5" />
      </g>
      <path
         inkscape:connector-curvature="0"
         id="path136"
         d="m 5.0119,191.854 0,-47.604"
         style="font-size:12px;font-style:normal;font-weight:normal;fill:none;stroke:#000000;stroke-width:1;stroke-linecap:square;stroke-linejoin:miter;stroke-miterlimit:10;stroke-opacity:1;stroke-dasharray:none;stroke-dashoffset:0;display:inline;font-family:Dialog" />
      <circle
         sodipodi:ry="5"
         sodipodi:rx="5"
         sodipodi:cy="0"
         sodipodi:cx="0"
         clip-path="url(#clipPath1)"
         id="circle140"
         cy="0"
         cx="0"
         r="5"
         style="font-size:12px;font-style:normal;font-weight:normal;fill:#000000;fill-opacity:1;stroke:none;display:inline;font-family:Dialog"
         transform="translate(5.0119,144.25)"
         d="M 5,0 C 5,2.7614237 2.7614237,5 0,5 -2.7614237,5 -5,2.7614237 -5,0 c 0,-2.7614237 2.2385763,-5 5,-5 2.7614237,0 5,2.2385763 5,5 z" />
      <circle
         sodipodi:ry="5"
         sodipodi:rx="5"
         sodipodi:cy="0"
         sodipodi:cx="0"
         clip-path="url(#clipPath1-5)"
         id="circle140-7"
         cy="0"
         cx="0"
         r="5"
         style="font-size:12px;font-style:normal;font-weight:normal;fill:#000000;fill-opacity:1;stroke:none;display:inline;font-family:Dialog"
         transform="matrix(-1,0,0,-1,5,144.25303)"
         d="M 5,0 C 5,2.7614237 2.7614237,5 0,5 -2.7614237,5 -5,2.7614237 -5,0 c 0,-2.7614237 2.2385763,-5 5,-5 2.7614237,0 5,2.2385763 5,5 z" />
      <g
         transform="translate(239.49785,144.37182)"
         id="g50-14"
         style="font-size:12px;font-style:normal;font-weight:normal;fill:#000000;fill-opacity:1;stroke:#000000;stroke-width:1;stroke-linecap:square;stroke-linejoin:miter;stroke-miterlimit:10;stroke-opacity:1;stroke-dasharray:none;stroke-dashoffset:0;display:inline;font-family:Dialog">
        <circle
           r="5"
           style="stroke:none"
           cx="0"
           cy="0"
           id="circle52-23"
           d="M 5,0 C 5,2.7614237 2.7614237,5 0,5 -2.7614237,5 -5,2.7614237 -5,0 c 0,-2.7614237 2.2385763,-5 5,-5 2.7614237,0 5,2.2385763 5,5 z"
           sodipodi:cx="0"
           sodipodi:cy="0"
           sodipodi:rx="5"
           sodipodi:ry="5" />
      </g>
      <g
         transform="translate(180.6578,144.73729)"
         id="g50-2"
         style="font-size:12px;font-style:normal;font-weight:normal;fill:#000000;fill-opacity:1;stroke:#000000;stroke-width:1;stroke-linecap:square;stroke-linejoin:miter;stroke-miterlimit:10;stroke-opacity:1;stroke-dasharray:none;stroke-dashoffset:0;display:inline;font-family:Dialog">
        <circle
           r="5"
           style="stroke:none"
           cx="0"
           cy="0"
           id="circle52-21"
           d="M 5,0 C 5,2.7614237 2.7614237,5 0,5 -2.7614237,5 -5,2.7614237 -5,0 c 0,-2.7614237 2.2385763,-5 5,-5 2.7614237,0 5,2.2385763 5,5 z"
           sodipodi:cx="0"
           sodipodi:cy="0"
           sodipodi:rx="5"
           sodipodi:ry="5" />
      </g>
      <g
         transform="translate(63.48987,239.95589)"
         id="g50-6"
         style="font-size:12px;font-style:normal;font-weight:normal;fill:#000000;fill-opacity:1;stroke:#000000;stroke-width:1;stroke-linecap:square;stroke-linejoin:miter;stroke-miterlimit:10;stroke-opacity:1;stroke-dasharray:none;stroke-dashoffset:0;display:inline;font-family:Dialog">
        <circle
           r="5"
           style="stroke:none"
           cx="0"
           cy="0"
           id="circle52-8"
           d="M 5,0 C 5,2.7614237 2.7614237,5 0,5 -2.7614237,5 -5,2.7614237 -5,0 c 0,-2.7614237 2.2385763,-5 5,-5 2.7614237,0 5,2.2385763 5,5 z"
           sodipodi:cx="0"
           sodipodi:cy="0"
           sodipodi:rx="5"
           sodipodi:ry="5" />
      </g>
      <g
         transform="translate(122.18323,240.61123)"
         id="g50-57"
         style="font-size:12px;font-style:normal;font-weight:normal;fill:#000000;fill-opacity:1;stroke:#000000;stroke-width:1;stroke-linecap:square;stroke-linejoin:miter;stroke-miterlimit:10;stroke-opacity:1;stroke-dasharray:none;stroke-dashoffset:0;display:inline;font-family:Dialog">
        <circle
           r="5"
           style="stroke:none"
           cx="0"
           cy="0"
           id="circle52-61"
           d="M 5,0 C 5,2.7614237 2.7614237,5 0,5 -2.7614237,5 -5,2.7614237 -5,0 c 0,-2.7614237 2.2385763,-5 5,-5 2.7614237,0 5,2.2385763 5,5 z"
           sodipodi:cx="0"
           sodipodi:cy="0"
           sodipodi:rx="5"
           sodipodi:ry="5" />
      </g>
      <g
         transform="translate(180.65781,240.30668)"
         id="g50-8"
         style="font-size:12px;font-style:normal;font-weight:normal;fill:#000000;fill-opacity:1;stroke:#000000;stroke-width:1;stroke-linecap:square;stroke-linejoin:miter;stroke-miterlimit:10;stroke-opacity:1;stroke-dasharray:none;stroke-dashoffset:0;display:inline;font-family:Dialog">
        <circle
           r="5"
           style="stroke:none"
           cx="0"
           cy="0"
           id="circle52-9"
           d="M 5,0 C 5,2.7614237 2.7614237,5 0,5 -2.7614237,5 -5,2.7614237 -5,0 c 0,-2.7614237 2.2385763,-5 5,-5 2.7614237,0 5,2.2385763 5,5 z"
           sodipodi:cx="0"
           sodipodi:cy="0"
           sodipodi:rx="5"
           sodipodi:ry="5" />
      </g>
      <g
         transform="translate(-182.6155,-85.75)"
         id="g54"
         style="font-size:12px;font-style:normal;font-weight:normal;fill:#000000;fill-opacity:1;stroke:#000000;stroke-width:1;stroke-linecap:square;stroke-linejoin:miter;stroke-miterlimit:10;stroke-opacity:1;stroke-dasharray:none;stroke-dashoffset:0;display:inline;font-family:Dialog">
        <path
           style="fill:none"
           d="m 363.6863,229.5309 58.6863,48.0731"
           id="path56"
           inkscape:connector-curvature="0" />
        <path
           style="fill:none"
           d="m 305,181.4579 58.6863,48.073"
           id="path58"
           inkscape:connector-curvature="0" />
        <circle
           d="M 5,0 C 5,2.7614237 2.7614237,5 0,5 -2.7614237,5 -5,2.7614237 -5,0 c 0,-2.7614237 2.2385763,-5 5,-5 2.7614237,0 5,2.2385763 5,5 z"
           transform="translate(363.6863,229.531)"
           style="stroke:none"
           r="5"
           cx="0"
           cy="0"
           id="circle60"
           clip-path="url(#clipPath1)"
           sodipodi:cx="0"
           sodipodi:cy="0"
           sodipodi:rx="5"
           sodipodi:ry="5" />
      </g>
      <g
         transform="translate(-182.6155,-85.75)"
         id="g66"
         style="font-size:12px;font-style:normal;font-weight:normal;fill:#000000;fill-opacity:1;stroke:#000000;stroke-width:1;stroke-linecap:square;stroke-linejoin:miter;stroke-miterlimit:10;stroke-opacity:1;stroke-dasharray:none;stroke-dashoffset:0;display:inline;font-family:Dialog">
        <path
           style="fill:none"
           d="m 422.3726,182.396 -58.6863,48.0731"
           id="path68"
           inkscape:connector-curvature="0" />
        <circle
           d="M 5,0 C 5,2.7614237 2.7614237,5 0,5 -2.7614237,5 -5,2.7614237 -5,0 c 0,-2.7614237 2.2385763,-5 5,-5 2.7614237,0 5,2.2385763 5,5 z"
           transform="translate(363.6863,230.469)"
           style="stroke:none"
           r="5"
           cx="0"
           cy="0"
           id="circle70"
           clip-path="url(#clipPath1)"
           sodipodi:cx="0"
           sodipodi:cy="0"
           sodipodi:rx="5"
           sodipodi:ry="5" />
      </g>
      <g
         transform="translate(-182.6155,-85.75)"
         id="g88"
         style="font-size:12px;font-style:normal;font-weight:normal;fill:#000000;fill-opacity:1;stroke:#000000;stroke-width:1;stroke-linecap:square;stroke-linejoin:miter;stroke-miterlimit:10;stroke-opacity:1;stroke-dasharray:none;stroke-dashoffset:0;display:inline;font-family:Dialog">
        <path
           style="fill:none"
           d="m 246.3137,134.323 -58.6863,48.073"
           id="path90"
           inkscape:connector-curvature="0" />
        <path
           style="fill:none"
           d="m 305,181.4579 -58.6863,48.073"
           id="path92"
           inkscape:connector-curvature="0" />
        <circle
           d="M 5,0 C 5,2.7614237 2.7614237,5 0,5 -2.7614237,5 -5,2.7614237 -5,0 c 0,-2.7614237 2.2385763,-5 5,-5 2.7614237,0 5,2.2385763 5,5 z"
           transform="translate(246.3137,229.531)"
           style="stroke:none"
           r="5"
           cx="0"
           cy="0"
           id="circle94"
           clip-path="url(#clipPath1)"
           sodipodi:cx="0"
           sodipodi:cy="0"
           sodipodi:rx="5"
           sodipodi:ry="5" />
      </g>
      <g
         transform="translate(-182.6155,-85.75)"
         id="g96"
         style="font-size:12px;font-style:normal;font-weight:normal;fill:#000000;fill-opacity:1;stroke:#000000;stroke-width:1;stroke-linecap:square;stroke-linejoin:miter;stroke-miterlimit:10;stroke-opacity:1;stroke-dasharray:none;stroke-dashoffset:0;display:inline;font-family:Dialog">
        <path
           style="fill:none"
           d="M 246.3137,229.5309 187.6274,277.604"
           id="path98"
           inkscape:connector-curvature="0" />
        <path
           style="fill:none"
           d="m 187.6274,182.396 58.6863,48.0731"
           id="path100"
           inkscape:connector-curvature="0" />
        <path
           style="fill:none"
           d="M 246.3137,230.4691 305,278.5421"
           id="path102"
           inkscape:connector-curvature="0" />
        <circle
           d="M 5,0 C 5,2.7614237 2.7614237,5 0,5 -2.7614237,5 -5,2.7614237 -5,0 c 0,-2.7614237 2.2385763,-5 5,-5 2.7614237,0 5,2.2385763 5,5 z"
           transform="translate(246.3137,230.469)"
           style="stroke:none"
           r="5"
           cx="0"
           cy="0"
           id="circle104"
           clip-path="url(#clipPath1)"
           sodipodi:cx="0"
           sodipodi:cy="0"
           sodipodi:rx="5"
           sodipodi:ry="5" />
        <circle
           d="M 5,0 C 5,2.7614237 2.7614237,5 0,5 -2.7614237,5 -5,2.7614237 -5,0 c 0,-2.7614237 2.2385763,-5 5,-5 2.7614237,0 5,2.2385763 5,5 z"
           transform="matrix(-1,0,0,-1,246.19151,229.65846)"
           style="font-size:12px;font-style:normal;font-weight:normal;fill:#000000;fill-opacity:1;stroke:none;font-family:Dialog"
           r="5"
           cx="0"
           cy="0"
           id="circle104-4"
           clip-path="url(#clipPath1-1)"
           sodipodi:cx="0"
           sodipodi:cy="0"
           sodipodi:rx="5"
           sodipodi:ry="5" />
      </g>
      <g
         transform="translate(-182.6155,-85.75)"
         id="g114"
         style="font-size:12px;font-style:normal;font-weight:normal;fill:#000000;fill-opacity:1;stroke:#000000;stroke-width:1;stroke-linecap:square;stroke-linejoin:miter;stroke-miterlimit:10;stroke-opacity:1;stroke-dasharray:none;stroke-dashoffset:0;display:inline;font-family:Dialog">
        <path
           style="fill:none"
           d="m 305,86.25 58.6863,48.073"
           id="path116"
           inkscape:connector-curvature="0" />
        <path
           style="fill:none"
           d="m 363.6863,134.323 58.6863,48.073"
           id="path118"
           inkscape:connector-curvature="0" />
        <circle
           d="M 5,0 C 5,2.7614237 2.7614237,5 0,5 -2.7614237,5 -5,2.7614237 -5,0 c 0,-2.7614237 2.2385763,-5 5,-5 2.7614237,0 5,2.2385763 5,5 z"
           transform="translate(363.6863,134.323)"
           style="stroke:none"
           r="5"
           cx="0"
           cy="0"
           id="circle120"
           clip-path="url(#clipPath1)"
           sodipodi:cx="0"
           sodipodi:cy="0"
           sodipodi:rx="5"
           sodipodi:ry="5" />
      </g>
      <g
         transform="translate(181.0708,48.573)"
         id="g122"
         style="font-size:12px;font-style:normal;font-weight:normal;fill:#000000;fill-opacity:1;stroke:#000000;stroke-width:1;stroke-linecap:square;stroke-linejoin:miter;stroke-miterlimit:10;stroke-opacity:1;stroke-dasharray:none;stroke-dashoffset:0;display:inline;font-family:Dialog">
        <circle
           r="5"
           style="stroke:none"
           cx="0"
           cy="0"
           id="circle124"
           clip-path="url(#clipPath2)"
           d="M 5,0 C 5,2.7614237 2.7614237,5 0,5 -2.7614237,5 -5,2.7614237 -5,0 c 0,-2.7614237 2.2385763,-5 5,-5 2.7614237,0 5,2.2385763 5,5 z"
           sodipodi:cx="0"
           sodipodi:cy="0"
           sodipodi:rx="5"
           sodipodi:ry="5" />
      </g>
      <path
         inkscape:connector-curvature="0"
         id="path138"
         d="m 5.0119,144.25 0,-47.604"
         style="font-size:12px;font-style:normal;font-weight:normal;fill:none;stroke:#000000;stroke-width:1;stroke-linecap:square;stroke-linejoin:miter;stroke-miterlimit:10;stroke-opacity:1;stroke-dasharray:none;stroke-dashoffset:0;display:inline;font-family:Dialog" />
      <g
         transform="translate(-182.6155,-85.75)"
         id="g146"
         style="font-size:12px;font-style:normal;font-weight:normal;fill:#000000;fill-opacity:1;stroke:#000000;stroke-width:1;stroke-linecap:square;stroke-linejoin:miter;stroke-miterlimit:10;stroke-opacity:1;stroke-dasharray:none;stroke-dashoffset:0;display:inline;font-family:Dialog">
        <path
           style="fill:none"
           d="m 422.3726,277.604 0,-47.604"
           id="path148"
           inkscape:connector-curvature="0" />
        <path
           style="fill:none"
           d="m 422.3726,230 0,-47.604"
           id="path150"
           inkscape:connector-curvature="0" />
        <circle
           d="M 5,0 C 5,2.7614237 2.7614237,5 0,5 -2.7614237,5 -5,2.7614237 -5,0 c 0,-2.7614237 2.2385763,-5 5,-5 2.7614237,0 5,2.2385763 5,5 z"
           transform="translate(422.3726,230)"
           style="stroke:none"
           r="5"
           cx="0"
           cy="0"
           id="circle152"
           clip-path="url(#clipPath1)"
           sodipodi:cx="0"
           sodipodi:cy="0"
           sodipodi:rx="5"
           sodipodi:ry="5" />
      </g>
      <g
         transform="translate(-182.6155,-85.75)"
         id="g154"
         style="font-size:12px;font-style:normal;font-weight:normal;fill:#000000;fill-opacity:1;stroke:#000000;stroke-width:1;stroke-linecap:square;stroke-linejoin:miter;stroke-miterlimit:10;stroke-opacity:1;stroke-dasharray:none;stroke-dashoffset:0;display:inline;font-family:Dialog">
        <path
           style="fill:none"
           d="m 305,181.4579 0,-47.6039"
           id="path156"
           inkscape:connector-curvature="0" />
        <path
           style="fill:none"
           d="M 305,133.854 305,86.25"
           id="path158"
           inkscape:connector-curvature="0" />
        <circle
           d="M 5,0 C 5,2.7614237 2.7614237,5 0,5 -2.7614237,5 -5,2.7614237 -5,0 c 0,-2.7614237 2.2385763,-5 5,-5 2.7614237,0 5,2.2385763 5,5 z"
           transform="translate(305,133.854)"
           style="stroke:none"
           r="5"
           cx="0"
           cy="0"
           id="circle160"
           clip-path="url(#clipPath1)"
           sodipodi:cx="0"
           sodipodi:cy="0"
           sodipodi:rx="5"
           sodipodi:ry="5" />
      </g>
      <g
         transform="translate(122.3845,48.104)"
         id="g162"
         style="font-size:12px;font-style:normal;font-weight:normal;fill:#000000;fill-opacity:1;stroke:#000000;stroke-width:1;stroke-linecap:square;stroke-linejoin:miter;stroke-miterlimit:10;stroke-opacity:1;stroke-dasharray:none;stroke-dashoffset:0;display:inline;font-family:Dialog">
        <circle
           r="5"
           style="stroke:none"
           cx="0"
           cy="0"
           id="circle164"
           clip-path="url(#clipPath2)"
           d="M 5,0 C 5,2.7614237 2.7614237,5 0,5 -2.7614237,5 -5,2.7614237 -5,0 c 0,-2.7614237 2.2385763,-5 5,-5 2.7614237,0 5,2.2385763 5,5 z"
           sodipodi:cx="0"
           sodipodi:cy="0"
           sodipodi:rx="5"
           sodipodi:ry="5" />
      </g>
      <g
         transform="translate(63.70865,48.49788)"
         id="g50-1"
         style="font-size:12px;font-style:normal;font-weight:normal;fill:#000000;fill-opacity:1;stroke:#000000;stroke-width:1;stroke-linecap:square;stroke-linejoin:miter;stroke-miterlimit:10;stroke-opacity:1;stroke-dasharray:none;stroke-dashoffset:0;display:inline;font-family:Dialog">
        <circle
           r="5"
           style="stroke:none"
           cx="0"
           cy="0"
           id="circle52-1"
           d="M 5,0 C 5,2.7614237 2.7614237,5 0,5 -2.7614237,5 -5,2.7614237 -5,0 c 0,-2.7614237 2.2385763,-5 5,-5 2.7614237,0 5,2.2385763 5,5 z"
           sodipodi:cx="0"
           sodipodi:cy="0"
           sodipodi:rx="5"
           sodipodi:ry="5" />
      </g>
      <g
         transform="translate(122.30505,48.25424)"
         id="g50-5"
         style="font-size:12px;font-style:normal;font-weight:normal;fill:#000000;fill-opacity:1;stroke:#000000;stroke-width:1;stroke-linecap:square;stroke-linejoin:miter;stroke-miterlimit:10;stroke-opacity:1;stroke-dasharray:none;stroke-dashoffset:0;display:inline;font-family:Dialog">
        <circle
           r="5"
           style="stroke:none"
           cx="0"
           cy="0"
           id="circle52-2"
           d="M 5,0 C 5,2.7614237 2.7614237,5 0,5 -2.7614237,5 -5,2.7614237 -5,0 c 0,-2.7614237 2.2385763,-5 5,-5 2.7614237,0 5,2.2385763 5,5 z"
           sodipodi:cx="0"
           sodipodi:cy="0"
           sodipodi:rx="5"
           sodipodi:ry="5" />
      </g>
      <g
         inkscape:transform-center-y="-0.7309322"
         transform="translate(181.02327,48.6197)"
         id="g50-7"
         style="font-size:12px;font-style:normal;font-weight:normal;fill:#000000;fill-opacity:1;stroke:#000000;stroke-width:1;stroke-linecap:square;stroke-linejoin:miter;stroke-miterlimit:10;stroke-opacity:1;stroke-dasharray:none;stroke-dashoffset:0;display:inline;font-family:Dialog">
        <circle
           r="5"
           style="stroke:none"
           cx="0"
           cy="0"
           id="circle52-6"
           d="M 5,0 C 5,2.7614237 2.7614237,5 0,5 -2.7614237,5 -5,2.7614237 -5,0 c 0,-2.7614237 2.2385763,-5 5,-5 2.7614237,0 5,2.2385763 5,5 z"
           sodipodi:cx="0"
           sodipodi:cy="0"
           sodipodi:rx="5"
           sodipodi:ry="5" />
      </g>
    </g>
  </g>
</svg>
